<svg width="102" height="17" viewBox="0 0 102 17" fill="none" xmlns="http://www.w3.org/2000/svg">
<path d="M20.3292 1.72266L16.6964 16H13.2491L11.3156 8.5C11.2765 8.35677 11.2244 8.13867 11.1593 7.8457C11.0942 7.55273 11.0258 7.23372 10.9542 6.88867C10.8826 6.53711 10.8175 6.20833 10.7589 5.90234C10.7068 5.58984 10.671 5.34245 10.6515 5.16016C10.632 5.34245 10.5929 5.58659 10.5343 5.89258C10.4822 6.19857 10.4204 6.52409 10.3488 6.86914C10.2837 7.21419 10.2185 7.53646 10.1534 7.83594C10.0883 8.13542 10.0363 8.36328 9.99719 8.51953L8.07336 16H4.63586L0.993286 1.72266H3.9718L5.79797 9.51562C5.85006 9.75 5.90865 10.0299 5.97375 10.3555C6.04537 10.681 6.11373 11.0228 6.17883 11.3809C6.25045 11.7324 6.3123 12.0742 6.36438 12.4062C6.42297 12.7318 6.46529 13.015 6.49133 13.2559C6.52389 13.0085 6.5662 12.722 6.61829 12.3965C6.67037 12.0645 6.72571 11.7292 6.7843 11.3906C6.84941 11.0456 6.91451 10.7266 6.97961 10.4336C7.04472 10.1406 7.10331 9.90299 7.1554 9.7207L9.23547 1.72266H12.0968L14.1769 9.7207C14.2225 9.89648 14.2745 10.1341 14.3331 10.4336C14.3982 10.7266 14.4633 11.0456 14.5284 11.3906C14.5935 11.7357 14.6521 12.0742 14.7042 12.4062C14.7628 12.7318 14.8051 13.015 14.8312 13.2559C14.8767 12.9303 14.9386 12.5365 15.0167 12.0742C15.1014 11.6055 15.1892 11.14 15.2804 10.6777C15.3781 10.2155 15.4627 9.82812 15.5343 9.51562L17.3507 1.72266H20.3292ZM26.3937 4.87695C27.4028 4.87695 28.2719 5.07227 29.0011 5.46289C29.7303 5.84701 30.2934 6.4069 30.6906 7.14258C31.0877 7.87826 31.2863 8.77669 31.2863 9.83789V11.2832H24.2452C24.2778 12.123 24.5284 12.7839 24.9972 13.2656C25.4725 13.7409 26.13 13.9785 26.9698 13.9785C27.6665 13.9785 28.3045 13.9069 28.8839 13.7637C29.4633 13.6204 30.059 13.4056 30.671 13.1191V15.4238C30.1307 15.6908 29.5642 15.8861 28.9718 16.0098C28.3859 16.1335 27.673 16.1953 26.8331 16.1953C25.7394 16.1953 24.7693 15.9935 23.923 15.5898C23.0831 15.1862 22.4223 14.571 21.9406 13.7441C21.4653 12.9173 21.2277 11.8757 21.2277 10.6191C21.2277 9.3431 21.4425 8.2819 21.8722 7.43555C22.3084 6.58268 22.9139 5.94466 23.6886 5.52148C24.4633 5.0918 25.365 4.87695 26.3937 4.87695ZM26.4132 6.99609C25.8338 6.99609 25.352 7.18164 24.9679 7.55273C24.5903 7.92383 24.3722 8.50651 24.3136 9.30078H28.4933C28.4868 8.85807 28.4054 8.46419 28.2491 8.11914C28.0994 7.77409 27.8715 7.50065 27.5656 7.29883C27.2661 7.09701 26.882 6.99609 26.4132 6.99609ZM39.9874 16L36.5499 4.79883H36.462C36.4751 5.06576 36.4946 5.4694 36.5206 6.00977C36.5532 6.54362 36.5825 7.11328 36.6085 7.71875C36.6346 8.32422 36.6476 8.87109 36.6476 9.35938V16H33.9425V1.72266H38.0636L41.4425 12.6406H41.5011L45.0851 1.72266H49.2062V16H46.3839V9.24219C46.3839 8.79297 46.3904 8.27539 46.4034 7.68945C46.423 7.10352 46.4458 6.54688 46.4718 6.01953C46.4978 5.48568 46.5174 5.08529 46.5304 4.81836H46.4425L42.7609 16H39.9874ZM62.4972 10.5215C62.4972 11.4329 62.3735 12.2402 62.1261 12.9434C61.8852 13.6465 61.5304 14.2422 61.0616 14.7305C60.5994 15.2122 60.0395 15.5768 59.382 15.8242C58.7309 16.0716 57.9952 16.1953 57.1749 16.1953C56.4067 16.1953 55.7003 16.0716 55.0558 15.8242C54.4178 15.5768 53.8611 15.2122 53.3859 14.7305C52.9171 14.2422 52.5525 13.6465 52.2921 12.9434C52.0382 12.2402 51.9113 11.4329 51.9113 10.5215C51.9113 9.31055 52.1261 8.28516 52.5558 7.44531C52.9855 6.60547 53.5975 5.96745 54.3917 5.53125C55.186 5.09505 56.1333 4.87695 57.2335 4.87695C58.2557 4.87695 59.1606 5.09505 59.9484 5.53125C60.7426 5.96745 61.3644 6.60547 61.8136 7.44531C62.2693 8.28516 62.4972 9.31055 62.4972 10.5215ZM54.9484 10.5215C54.9484 11.2376 55.0265 11.8398 55.1827 12.3281C55.339 12.8164 55.5831 13.1842 55.9152 13.4316C56.2472 13.679 56.6801 13.8027 57.214 13.8027C57.7413 13.8027 58.1678 13.679 58.4933 13.4316C58.8253 13.1842 59.0662 12.8164 59.2159 12.3281C59.3722 11.8398 59.4503 11.2376 59.4503 10.5215C59.4503 9.79883 59.3722 9.19987 59.2159 8.72461C59.0662 8.24284 58.8253 7.88151 58.4933 7.64062C58.1613 7.39974 57.7283 7.2793 57.1945 7.2793C56.4067 7.2793 55.8338 7.54948 55.4757 8.08984C55.1241 8.63021 54.9484 9.44076 54.9484 10.5215ZM67.5558 16L63.3956 5.08203H66.5109L68.6202 11.3027C68.7374 11.6673 68.8286 12.0514 68.8937 12.4551C68.9653 12.8587 69.0141 13.2201 69.0402 13.5391H69.1183C69.1378 13.194 69.1834 12.8262 69.255 12.4355C69.3331 12.0449 69.434 11.6673 69.5577 11.3027L71.6573 5.08203H74.7726L70.6124 16H67.5558ZM79.3234 5.08203V16H76.3448V5.08203H79.3234ZM77.839 0.804688C78.2817 0.804688 78.6626 0.908854 78.9816 1.11719C79.3006 1.31901 79.4601 1.69987 79.4601 2.25977C79.4601 2.81315 79.3006 3.19727 78.9816 3.41211C78.6626 3.62044 78.2817 3.72461 77.839 3.72461C77.3898 3.72461 77.0057 3.62044 76.6866 3.41211C76.3741 3.19727 76.2179 2.81315 76.2179 2.25977C76.2179 1.69987 76.3741 1.31901 76.6866 1.11719C77.0057 0.908854 77.3898 0.804688 77.839 0.804688ZM86.9601 4.87695C87.9692 4.87695 88.8383 5.07227 89.5675 5.46289C90.2967 5.84701 90.8598 6.4069 91.257 7.14258C91.6541 7.87826 91.8527 8.77669 91.8527 9.83789V11.2832H84.8116C84.8442 12.123 85.0948 12.7839 85.5636 13.2656C86.0389 13.7409 86.6964 13.9785 87.5363 13.9785C88.2329 13.9785 88.8709 13.9069 89.4503 13.7637C90.0297 13.6204 90.6254 13.4056 91.2374 13.1191V15.4238C90.6971 15.6908 90.1307 15.8861 89.5382 16.0098C88.9523 16.1335 88.2394 16.1953 87.3995 16.1953C86.3058 16.1953 85.3357 15.9935 84.4894 15.5898C83.6495 15.1862 82.9887 14.571 82.507 13.7441C82.0317 12.9173 81.7941 11.8757 81.7941 10.6191C81.7941 9.3431 82.0089 8.2819 82.4386 7.43555C82.8748 6.58268 83.4803 5.94466 84.255 5.52148C85.0297 5.0918 85.9314 4.87695 86.9601 4.87695ZM86.9796 6.99609C86.4002 6.99609 85.9184 7.18164 85.5343 7.55273C85.1567 7.92383 84.9386 8.50651 84.88 9.30078H89.0597C89.0532 8.85807 88.9718 8.46419 88.8156 8.11914C88.6658 7.77409 88.4379 7.50065 88.132 7.29883C87.8325 7.09701 87.4484 6.99609 86.9796 6.99609ZM101.892 12.7578C101.892 13.5 101.716 14.1283 101.364 14.6426C101.019 15.1504 100.502 15.5378 99.8116 15.8047C99.1215 16.0651 98.2622 16.1953 97.2335 16.1953C96.4718 16.1953 95.8175 16.1465 95.2706 16.0488C94.7303 15.9512 94.1834 15.7884 93.63 15.5605V13.0996C94.2225 13.3665 94.8572 13.5879 95.5343 13.7637C96.2179 13.9329 96.8169 14.0176 97.3312 14.0176C97.9106 14.0176 98.324 13.9329 98.5714 13.7637C98.8253 13.5879 98.9523 13.36 98.9523 13.0801C98.9523 12.8978 98.9002 12.735 98.796 12.5918C98.6984 12.4421 98.4835 12.276 98.1515 12.0938C97.8195 11.9049 97.2986 11.6608 96.589 11.3613C95.9054 11.0749 95.3422 10.7852 94.8995 10.4922C94.4633 10.1992 94.1378 9.85417 93.923 9.45703C93.7146 9.05339 93.6105 8.54232 93.6105 7.92383C93.6105 6.91471 94.0011 6.15625 94.7823 5.64844C95.5701 5.13411 96.6215 4.87695 97.9366 4.87695C98.6137 4.87695 99.2583 4.94531 99.8702 5.08203C100.489 5.21875 101.123 5.43685 101.775 5.73633L100.876 7.88477C100.336 7.65039 99.8247 7.45833 99.3429 7.30859C98.8676 7.15885 98.3826 7.08398 97.8878 7.08398C97.4516 7.08398 97.1228 7.14258 96.9015 7.25977C96.6801 7.37695 96.5695 7.55599 96.5695 7.79688C96.5695 7.97266 96.6248 8.12891 96.7355 8.26562C96.8527 8.40234 97.074 8.55534 97.3995 8.72461C97.7316 8.88737 98.2166 9.09896 98.8546 9.35938C99.4731 9.61328 100.01 9.88021 100.466 10.1602C100.922 10.4336 101.273 10.7754 101.521 11.1855C101.768 11.5892 101.892 12.1133 101.892 12.7578Z" fill="white"/>
</svg>
